<?xml version="1.0" encoding="UTF-8"?>
<svg id="Layer_2" data-name="Layer 2" xmlns="http://www.w3.org/2000/svg" viewBox="0 0 950 950">
  <defs>
    <style>
      .cls-1, .cls-2 {
        stroke-width: 50px;
      }

      .cls-1, .cls-2, .cls-3 {
        fill: none;
        stroke: #fff;
        stroke-miterlimit: 10;
      }

      .cls-1, .cls-3 {
        fill-rule: evenodd;
      }

      .cls-3 {
        stroke-width: 60px;
      }
    </style>
  </defs>
  <g id="Layer_3" data-name="Layer 3">
    <g>
      <path class="cls-1" d="M925,410.71V140.38c0-63.72-51.66-115.38-115.38-115.38h-270.33"/>
      <path class="cls-1" d="M25,539.29v270.33c0,63.72,51.66,115.38,115.38,115.38h270.33"/>
      <path class="cls-1" d="M667.86,925h141.76c63.72,0,115.38-51.66,115.38-115.38v-141.76"/>
      <line class="cls-2" x1="925" y1="410.71" x2="925" y2="667.86"/>
      <line class="cls-2" x1="667.86" y1="925" x2="410.71" y2="925"/>
      <path class="cls-2" d="M555.36,25h-257.14s-157.83,0-157.83,0c-63.72,0-115.38,51.66-115.38,115.38v141.76s0,257.14,0,257.14"/>
    </g>
    <path class="cls-3" d="M892.86,892.86l-575.83-90.92c-12.41-1.96-15.95-18.13-5.5-25.1l142.37-94.91c133.67-89.11,230.03,227.01,213.96-399.78h0s-273.21-80.36-273.21-80.36"/>
    <path class="cls-3" d="M410.71,153.57h0c0,164.65-65.41,322.55-181.83,438.97l-75.32,75.32"/>
  </g>
</svg>